<svg width="67" height="76" viewBox="0 0 67 76" fill="none" xmlns="http://www.w3.org/2000/svg">
<rect x="0.480769" y="0.480769" width="65.9281" height="74.6795" rx="32.964" fill="url(#paint0_linear_2001_21352)"/>
<rect x="0.480769" y="0.480769" width="65.9281" height="74.6795" rx="32.964" stroke="#CB97FF" stroke-width="0.961539"/>
<g clip-path="url(#clip0_2001_21352)">
<path d="M40.9448 54.0705C40.9448 54.402 40.8131 54.72 40.5787 54.9544C40.3442 55.1888 40.0263 55.3205 39.6948 55.3205H27.1948C26.8633 55.3205 26.5453 55.1888 26.3109 54.9544C26.0765 54.72 25.9448 54.402 25.9448 54.0705C25.9448 53.739 26.0765 53.4211 26.3109 53.1866C26.5453 52.9522 26.8633 52.8205 27.1948 52.8205H39.6948C40.0263 52.8205 40.3442 52.9522 40.5787 53.1866C40.8131 53.4211 40.9448 53.739 40.9448 54.0705ZM47.1948 34.0705C47.2002 36.1543 46.7294 38.2118 45.8185 40.086C44.9075 41.9602 43.5805 43.6014 41.9385 44.8846C41.6315 45.1199 41.3824 45.4223 41.2101 45.7687C41.0379 46.115 40.9471 46.4962 40.9448 46.883V47.8205C40.9448 48.4836 40.6814 49.1194 40.2126 49.5883C39.7437 50.0571 39.1078 50.3205 38.4448 50.3205H28.4448C27.7817 50.3205 27.1459 50.0571 26.677 49.5883C26.2082 49.1194 25.9448 48.4836 25.9448 47.8205V46.883C25.9445 46.5008 25.8566 46.1238 25.6879 45.7809C25.5191 45.4379 25.274 45.1383 24.9713 44.9049C23.3335 43.6293 22.0074 41.9979 21.0932 40.1341C20.179 38.2703 19.7008 36.223 19.6948 34.1471C19.6542 26.7002 25.6729 20.4986 33.1135 20.3205C34.9469 20.2763 36.7706 20.5994 38.4772 21.2705C40.1839 21.9417 41.739 22.9476 43.0511 24.2288C44.3632 25.51 45.4057 27.0408 46.1174 28.731C46.829 30.4212 47.1953 32.2366 47.1948 34.0705ZM39.3292 34.4361C39.2131 34.3199 39.0752 34.2277 38.9235 34.1648C38.7717 34.1019 38.6091 34.0695 38.4448 34.0695C38.2805 34.0695 38.1179 34.1019 37.9661 34.1648C37.8144 34.2277 37.6765 34.3199 37.5604 34.4361L33.4448 38.5533L29.3292 34.4361C29.0946 34.2016 28.7765 34.0698 28.4448 34.0698C28.1131 34.0698 27.795 34.2016 27.5604 34.4361C27.3259 34.6707 27.1941 34.9888 27.1941 35.3205C27.1941 35.6522 27.3259 35.9703 27.5604 36.2049L32.1948 40.8377V46.5705C32.1948 46.902 32.3265 47.22 32.5609 47.4544C32.7953 47.6888 33.1133 47.8205 33.4448 47.8205C33.7763 47.8205 34.0942 47.6888 34.3287 47.4544C34.5631 47.22 34.6948 46.902 34.6948 46.5705V40.8377L39.3292 36.2049C39.4454 36.0888 39.5376 35.9509 39.6005 35.7992C39.6634 35.6474 39.6958 35.4848 39.6958 35.3205C39.6958 35.1562 39.6634 34.9936 39.6005 34.8418C39.5376 34.6901 39.4454 34.5522 39.3292 34.4361Z" fill="white"/>
</g>
<defs>
<linearGradient id="paint0_linear_2001_21352" x1="33.4448" y1="0" x2="33.4448" y2="75.641" gradientUnits="userSpaceOnUse">
<stop stop-color="#8547F6"/>
<stop offset="1" stop-color="#BC98FF"/>
</linearGradient>
<clipPath id="clip0_2001_21352">
<rect width="40" height="40" fill="white" transform="translate(13.4448 17.8206)"/>
</clipPath>
</defs>
</svg>
