<svg width="67" height="76" viewBox="0 0 67 76" fill="none" xmlns="http://www.w3.org/2000/svg">
<rect x="0.480769" y="0.480769" width="65.9281" height="74.6795" rx="32.964" fill="url(#paint0_linear_2001_21363)"/>
<rect x="0.480769" y="0.480769" width="65.9281" height="74.6795" rx="32.964" stroke="#CB97FF" stroke-width="0.961539"/>
<g clip-path="url(#clip0_2001_21363)">
<path d="M21.2808 42.8205L27.3621 32.2846L27.0121 31.6783C26.4889 30.8006 26.1506 29.8252 26.0179 28.812C25.8853 27.7988 25.9611 26.7692 26.2407 25.7863C26.5203 24.8034 26.9978 23.8881 27.6438 23.0964C28.2899 22.3047 29.0909 21.6534 29.9978 21.1825C30.9046 20.7115 31.8982 20.4308 32.9174 20.3576C33.9366 20.2845 34.96 20.4203 35.9249 20.7569C36.8897 21.0935 37.7755 21.6237 38.5281 22.3149C39.2806 23.0062 39.884 23.8439 40.3011 24.7768C40.4321 25.0616 40.4536 25.3846 40.3617 25.6843C40.2698 25.984 40.0708 26.2394 39.8027 26.4018C39.6503 26.4903 39.4809 26.5455 39.3056 26.564C39.1304 26.5824 38.9532 26.5635 38.7857 26.5086C38.6182 26.4537 38.4643 26.3641 38.3339 26.2455C38.2035 26.1269 38.0997 25.9821 38.0293 25.8205C37.7534 25.197 37.3529 24.6365 36.8524 24.1735C36.3519 23.7104 35.7621 23.3547 35.119 23.128C34.476 22.9013 33.7934 22.8086 33.1132 22.8554C32.433 22.9023 31.7695 23.0878 31.1637 23.4005C30.5578 23.7132 30.0223 24.1465 29.59 24.6738C29.1578 25.2011 28.8379 25.8112 28.6502 26.4667C28.4624 27.1221 28.4107 27.8091 28.4982 28.4853C28.5857 29.1614 28.8105 29.8126 29.1589 30.3987C29.164 30.4048 29.1682 30.4117 29.1714 30.419L31.3324 34.1596C31.4421 34.3496 31.4998 34.5652 31.4998 34.7846C31.4998 35.004 31.4421 35.2196 31.3324 35.4096L25.6105 45.3205C25.2746 45.886 24.7295 46.2963 24.0931 46.4626C23.4568 46.6289 22.7806 46.5377 22.211 46.2088C21.6414 45.8799 21.2244 45.3399 21.0503 44.7056C20.8762 44.0714 20.959 43.3941 21.2808 42.8205ZM43.3121 36.5705H41.3839L35.6105 26.5705C35.2746 26.0051 34.7295 25.5947 34.0931 25.4285C33.4568 25.2622 32.7806 25.3534 32.211 25.6822C31.6414 26.0111 31.2244 26.5512 31.0503 27.1854C30.8762 27.8196 30.959 28.4969 31.2808 29.0705L36.6933 38.4455C36.8029 38.6354 36.9605 38.793 37.1503 38.9027C37.3401 39.0124 37.5554 39.0703 37.7746 39.0705H43.3418C46.1371 39.0705 48.4902 41.358 48.4449 44.1533C48.4234 45.4567 47.8937 46.7001 46.9688 47.6186C46.0438 48.5371 44.7968 49.0581 43.4933 49.0705C43.1739 49.0667 42.8646 49.1818 42.6254 49.3935C42.3863 49.6052 42.2345 49.8984 42.1996 50.2158C42.185 50.3886 42.2066 50.5624 42.2629 50.7264C42.3192 50.8904 42.409 51.0408 42.5265 51.1682C42.6441 51.2956 42.7868 51.3972 42.9457 51.4664C43.1046 51.5357 43.2762 51.5711 43.4496 51.5705C44.4465 51.5697 45.4333 51.3702 46.3524 50.9839C47.2715 50.5976 48.1044 50.0321 48.8025 49.3204C49.5007 48.6087 50.0501 47.7651 50.4187 46.8388C50.7874 45.9125 50.9678 44.922 50.9496 43.9252C50.8652 39.819 47.4261 36.5705 43.3183 36.5705H43.3121ZM45.9449 43.9502C45.8824 42.6049 44.723 41.5705 43.3777 41.5705H31.3839C31.1645 41.5705 30.9489 41.6282 30.7588 41.7379C30.5687 41.8476 30.4109 42.0055 30.3011 42.1955L27.7761 46.5705C27.4353 47.1582 26.9783 47.6703 26.433 48.0755C25.8877 48.4807 25.2656 48.7705 24.6046 48.9273C23.9435 49.084 23.2575 49.1044 22.5883 48.9872C21.9191 48.8701 21.2809 48.6177 20.7124 48.2457C20.144 47.8736 19.6574 47.3896 19.2823 46.8232C18.9071 46.2568 18.6513 45.6199 18.5305 44.9514C18.4097 44.2828 18.4264 43.5967 18.5796 42.9348C18.7328 42.273 19.0192 41.6493 19.4214 41.1018C19.6157 40.8488 19.7087 40.5325 19.6821 40.2146C19.6555 39.8967 19.5113 39.6002 19.2777 39.383C19.1485 39.268 18.9969 39.1809 18.8324 39.1275C18.6679 39.074 18.4941 39.0553 18.3219 39.0725C18.1498 39.0897 17.9831 39.1424 17.8324 39.2273C17.6817 39.3122 17.5503 39.4275 17.4464 39.5658C16.4822 40.8435 15.9557 42.398 15.9449 43.9987C15.93 45.6549 16.4639 47.2694 17.4631 48.5904C18.4623 49.9114 19.8706 50.8644 21.4684 51.3008C23.0662 51.7372 24.7635 51.6325 26.2954 51.0029C27.8274 50.3733 29.1079 49.2543 29.9371 47.8205L30.6589 46.5705H43.4449C43.7836 46.5709 44.1188 46.5025 44.4302 46.3694C44.7417 46.2363 45.0228 46.0413 45.2566 45.7963C45.4904 45.5512 45.6719 45.2613 45.7903 44.9439C45.9086 44.6266 45.9612 44.2885 45.9449 43.9502Z" fill="white"/>
</g>
<defs>
<linearGradient id="paint0_linear_2001_21363" x1="33.4448" y1="0" x2="33.4448" y2="75.641" gradientUnits="userSpaceOnUse">
<stop stop-color="#8547F6"/>
<stop offset="1" stop-color="#BC98FF"/>
</linearGradient>
<clipPath id="clip0_2001_21363">
<rect width="40" height="40" fill="white" transform="translate(13.4448 17.8206)"/>
</clipPath>
</defs>
</svg>
