<svg width="127" height="144" viewBox="0 0 127 144" fill="none" xmlns="http://www.w3.org/2000/svg">
<rect x="15.9019" y="17.5481" width="96.255" height="109.032" rx="48.1275" fill="url(#paint0_linear_2001_21334)"/>
<rect x="15.9019" y="17.5481" width="96.255" height="109.032" rx="48.1275" stroke="#CB97FF" stroke-width="1.40385"/>
<g clip-path="url(#clip0_2001_21334)">
<path d="M85.5918 81.6946L64.0293 94.2688L42.4668 81.6946C42.0399 81.482 41.548 81.4402 41.0913 81.5775C40.6345 81.7148 40.2473 82.021 40.0084 82.4337C39.7695 82.8465 39.6968 83.3348 39.8052 83.7992C39.9136 84.2636 40.1949 84.6693 40.5918 84.9337L63.0918 98.0587C63.3785 98.2259 63.7044 98.314 64.0363 98.314C64.3682 98.314 64.6942 98.2259 64.9809 98.0587L87.4809 84.9337C87.697 84.8114 87.8866 84.6474 88.0389 84.4513C88.1911 84.2551 88.3028 84.0307 88.3676 83.791C88.4324 83.5513 88.4489 83.3011 88.4163 83.055C88.3836 82.8088 88.3023 82.5716 88.1772 82.3571C88.0522 82.1427 87.8857 81.9552 87.6876 81.8055C87.4894 81.6559 87.2635 81.5471 87.023 81.4854C86.7825 81.4238 86.5321 81.4106 86.2864 81.4465C86.0407 81.4824 85.8046 81.5667 85.5918 81.6946Z" fill="url(#paint1_linear_2001_21334)"/>
<path d="M85.5918 70.4446L64.0293 83.0188L42.4668 70.4446C42.0399 70.232 41.548 70.1902 41.0913 70.3275C40.6345 70.4648 40.2473 70.771 40.0084 71.1837C39.7695 71.5965 39.6968 72.0848 39.8052 72.5492C39.9136 73.0136 40.1949 73.4193 40.5918 73.6837L63.0918 86.8087C63.3785 86.9759 63.7044 87.064 64.0363 87.064C64.3682 87.064 64.6942 86.9759 64.9809 86.8087L87.4809 73.6837C87.697 73.5614 87.8866 73.3974 88.0389 73.2013C88.1911 73.0051 88.3028 72.7807 88.3676 72.541C88.4324 72.3013 88.4489 72.0511 88.4163 71.805C88.3836 71.5588 88.3023 71.3216 88.1772 71.1071C88.0522 70.8927 87.8857 70.7052 87.6876 70.5555C87.4894 70.4059 87.2635 70.2971 87.023 70.2354C86.7825 70.1738 86.5321 70.1606 86.2864 70.1965C86.0407 70.2324 85.8046 70.3167 85.5918 70.4446Z" fill="url(#paint2_linear_2001_21334)"/>
<path d="M40.5918 62.4338L63.0918 75.5588C63.3785 75.726 63.7044 75.8141 64.0363 75.8141C64.3682 75.8141 64.6941 75.726 64.9808 75.5588L87.4808 62.4338C87.7639 62.2687 87.9987 62.0322 88.1619 61.7481C88.3251 61.4639 88.411 61.142 88.411 60.8143C88.411 60.4866 88.3251 60.1646 88.1619 59.8805C87.9987 59.5963 87.7639 59.3599 87.4808 59.1947L64.9808 46.0697C64.6941 45.9025 64.3682 45.8145 64.0363 45.8145C63.7044 45.8145 63.3785 45.9025 63.0918 46.0697L40.5918 59.1947C40.3087 59.3599 40.0739 59.5963 39.9107 59.8805C39.7475 60.1646 39.6616 60.4866 39.6616 60.8143C39.6616 61.142 39.7475 61.4639 39.9107 61.7481C40.0739 62.0322 40.3087 62.2687 40.5918 62.4338Z" fill="url(#paint3_linear_2001_21334)"/>
</g>
<path d="M114.424 72.133C114.424 104.016 91.6252 129.76 63.6208 129.76C35.6163 129.76 12.8178 104.016 12.8178 72.133C12.8178 40.2501 35.6163 14.5065 63.6208 14.5065C91.6252 14.5065 114.424 40.2501 114.424 72.133Z" stroke="url(#paint4_linear_2001_21334)" stroke-opacity="0.5" stroke-width="0.935897"/>
<path d="M118.762 72.064C118.762 106.493 94.1416 134.301 63.8898 134.301C33.6381 134.301 9.01775 106.493 9.01775 72.064C9.01775 37.6347 33.6381 9.82684 63.8898 9.82684C94.1416 9.82684 118.762 37.6347 118.762 72.064Z" stroke="url(#paint5_linear_2001_21334)" stroke-opacity="0.5" stroke-width="0.935897"/>
<path d="M122.15 71.9952C122.15 108.971 95.708 138.843 63.2089 138.843C30.7099 138.843 4.26775 108.971 4.26775 71.9952C4.26775 35.0195 30.7099 5.14739 63.2089 5.14739C95.708 5.14739 122.15 35.0195 122.15 71.9952Z" stroke="url(#paint6_linear_2001_21334)" stroke-opacity="0.5" stroke-width="0.935897"/>
<path d="M126.489 71.9265C126.489 111.449 98.2247 143.385 63.4783 143.385C28.7319 143.385 0.467949 111.449 0.467949 71.9265C0.467949 32.4044 28.7319 0.467949 63.4783 0.467949C98.2247 0.467949 126.489 32.4044 126.489 71.9265Z" stroke="url(#paint7_linear_2001_21334)" stroke-opacity="0.5" stroke-width="0.935897"/>
<defs>
<linearGradient id="paint0_linear_2001_21334" x1="64.0294" y1="16.8462" x2="64.0294" y2="127.282" gradientUnits="userSpaceOnUse">
<stop stop-color="#8547F6"/>
<stop offset="1" stop-color="#BC98FF"/>
</linearGradient>
<linearGradient id="paint1_linear_2001_21334" x1="64.0943" y1="81.4268" x2="64.0943" y2="98.314" gradientUnits="userSpaceOnUse">
<stop stop-color="white"/>
</linearGradient>
<linearGradient id="paint2_linear_2001_21334" x1="64.0943" y1="70.1768" x2="64.0943" y2="87.064" gradientUnits="userSpaceOnUse">
<stop stop-color="white"/>
</linearGradient>
<linearGradient id="paint3_linear_2001_21334" x1="64.0363" y1="45.8145" x2="64.0363" y2="75.8141" gradientUnits="userSpaceOnUse">
<stop stop-color="white"/>
</linearGradient>
<linearGradient id="paint4_linear_2001_21334" x1="12.3499" y1="72.133" x2="112.833" y2="72.133" gradientUnits="userSpaceOnUse">
<stop stop-color="white" stop-opacity="0.4"/>
<stop offset="0.5" stop-color="white"/>
<stop offset="1" stop-color="white" stop-opacity="0.2"/>
</linearGradient>
<linearGradient id="paint5_linear_2001_21334" x1="8.54981" y1="72.064" x2="117.008" y2="72.064" gradientUnits="userSpaceOnUse">
<stop stop-color="white" stop-opacity="0.4"/>
<stop offset="0.5" stop-color="white"/>
<stop offset="1" stop-color="white" stop-opacity="0.2"/>
</linearGradient>
<linearGradient id="paint6_linear_2001_21334" x1="3.79981" y1="71.9952" x2="120.233" y2="71.9952" gradientUnits="userSpaceOnUse">
<stop stop-color="white" stop-opacity="0.4"/>
<stop offset="0.5" stop-color="white"/>
<stop offset="1" stop-color="white" stop-opacity="0.2"/>
</linearGradient>
<linearGradient id="paint7_linear_2001_21334" x1="9.459e-07" y1="71.9265" x2="124.408" y2="71.9265" gradientUnits="userSpaceOnUse">
<stop stop-color="white" stop-opacity="0.4"/>
<stop offset="0.5" stop-color="white"/>
<stop offset="1" stop-color="white" stop-opacity="0.2"/>
</linearGradient>
<clipPath id="clip0_2001_21334">
<rect width="60" height="60" fill="white" transform="translate(34.0293 42.0642)"/>
</clipPath>
</defs>
</svg>
