<svg width="67" height="77" viewBox="0 0 67 77" fill="none" xmlns="http://www.w3.org/2000/svg">
<rect x="0.480769" y="1.0191" width="65.9281" height="74.6795" rx="32.964" fill="url(#paint0_linear_2001_21371)"/>
<rect x="0.480769" y="1.0191" width="65.9281" height="74.6795" rx="32.964" stroke="#CB97FF" stroke-width="0.961539"/>
<g clip-path="url(#clip0_2001_21371)">
<path d="M29.3588 48.2245C28.6541 49.7651 26.3026 53.3588 19.6947 53.3588C19.3632 53.3588 19.0453 53.2271 18.8109 52.9927C18.5764 52.7583 18.4447 52.4403 18.4447 52.1088C18.4447 45.501 22.0385 43.1495 23.5791 42.4448C23.7285 42.3766 23.8898 42.3386 24.0539 42.3328C24.218 42.3271 24.3816 42.3537 24.5354 42.4111C24.6892 42.4686 24.8302 42.5558 24.9503 42.6677C25.0704 42.7796 25.1673 42.9141 25.2354 43.0635C25.3035 43.2129 25.3415 43.3742 25.3473 43.5383C25.3531 43.7024 25.3265 43.866 25.269 44.0198C25.2116 44.1736 25.1244 44.3146 25.0124 44.4347C24.9005 44.5548 24.766 44.6516 24.6166 44.7198C23.6119 45.1776 21.3947 46.651 21.0041 50.7995C25.1526 50.4088 26.6291 48.1916 27.0838 47.187C27.1519 47.0376 27.2488 46.9031 27.3689 46.7911C27.489 46.6792 27.63 46.592 27.7838 46.5346C27.9376 46.4771 28.1012 46.4505 28.2653 46.4563C28.4293 46.462 28.5907 46.5001 28.7401 46.5682C28.8894 46.6363 29.0239 46.7332 29.1359 46.8533C29.2478 46.9734 29.335 47.1144 29.3925 47.2682C29.4499 47.422 29.4765 47.5856 29.4707 47.7497C29.465 47.9137 29.4269 48.0751 29.3588 48.2245ZM48.4213 25.7245C48.3843 25.115 48.1255 24.5401 47.6937 24.1083C47.2619 23.6766 46.6871 23.4177 46.0776 23.3807C44.1119 23.2635 39.0885 23.4432 34.9213 27.6104L27.1947 35.3432C27.0787 35.4594 26.9409 35.5517 26.7892 35.6147C26.6375 35.6777 26.4749 35.7102 26.3107 35.7103C25.979 35.7106 25.6608 35.5791 25.426 35.3448C25.1912 35.1104 25.0592 34.7924 25.0589 34.4607C25.0586 34.129 25.1901 33.8108 25.4244 33.576L29.5744 29.4245C29.6613 29.3371 29.7204 29.2259 29.7443 29.105C29.7682 28.9841 29.7558 28.8589 29.7088 28.745C29.6617 28.6311 29.582 28.5337 29.4797 28.465C29.3774 28.3963 29.257 28.3593 29.1338 28.3588H25.0619C24.7326 28.3571 24.4062 28.4208 24.1018 28.5464C23.7973 28.6719 23.5209 28.8567 23.2885 29.0901L17.9291 34.4526C17.6004 34.781 17.3698 35.1946 17.2631 35.6468C17.1564 36.0991 17.1778 36.5721 17.325 37.0128C17.4722 37.4536 17.7393 37.8446 18.0963 38.1419C18.4534 38.4393 18.8862 38.6313 19.3463 38.6963L25.3572 39.5354L32.2651 46.4432L33.1041 52.4573C33.1686 52.9174 33.3606 53.3503 33.6582 53.707C33.9559 54.0637 34.3474 54.3301 34.7885 54.476C35.0454 54.5618 35.3145 54.6056 35.5854 54.6057C35.9134 54.6063 36.2382 54.542 36.5413 54.4165C36.8443 54.291 37.1195 54.1068 37.351 53.8745L42.7135 48.5151C42.9461 48.2822 43.1305 48.0056 43.256 47.7013C43.3815 47.397 43.4456 47.0708 43.4447 46.7416V42.6698C43.4445 42.5462 43.4077 42.4255 43.3389 42.3229C43.2701 42.2202 43.1725 42.1403 43.0583 42.0931C42.9441 42.046 42.8185 42.0337 42.6973 42.0579C42.5761 42.0822 42.4649 42.1417 42.3776 42.2291L38.226 46.3791C38.1046 46.5007 37.9594 46.5959 37.7995 46.6588C37.6397 46.7218 37.4686 46.7511 37.2969 46.7449C37.1252 46.7387 36.9566 46.6973 36.8016 46.623C36.6467 46.5488 36.5087 46.4435 36.3963 46.3135C36.1913 46.0655 36.0871 45.7494 36.1044 45.428C36.1218 45.1067 36.2595 44.8036 36.4901 44.5791L44.1885 36.8807C48.3588 32.712 48.5385 27.6885 48.4213 25.7213V25.7245Z" fill="white"/>
</g>
<defs>
<linearGradient id="paint0_linear_2001_21371" x1="33.4448" y1="0.53833" x2="33.4448" y2="76.1794" gradientUnits="userSpaceOnUse">
<stop stop-color="#8547F6"/>
<stop offset="1" stop-color="#BC98FF"/>
</linearGradient>
<clipPath id="clip0_2001_21371">
<rect width="40" height="40" fill="white" transform="translate(13.4448 18.3589)"/>
</clipPath>
</defs>
</svg>
